<svg xmlns="http://www.w3.org/2000/svg" xmlns:xlink="http://www.w3.org/1999/xlink" width="190.259" height="151.78" viewBox="0 0 190.259 151.78">
  <defs>
    <linearGradient id="linear-gradient" x1="0.059" y1="1.25" x2="0.941" y2="-0.25" gradientUnits="objectBoundingBox">
      <stop offset="0" stop-color="#ff414b"/>
      <stop offset="1" stop-color="#ff8760"/>
    </linearGradient>
  </defs>
  <g id="CHART" transform="translate(-977.359 -364.03)">
    <rect id="Rectangle_10" data-name="Rectangle 10" width="1.91" height="144.09" transform="translate(1137.72 371.72)" fill="#eee"/>
    <path id="Shape_60" data-name="Shape 60" d="M979.191,470.511c6.13,1.4,10.7-3.477,13.79-8.077,1.4-2.081,2.484-3.927,4.461-5.475a7.363,7.363,0,0,1,2.789-1.254,22.227,22.227,0,0,1,4.019-.272,15.449,15.449,0,0,0,7.757-1.844,16.043,16.043,0,0,0,4.664-4.553c2.414-3.367,3.863-7.312,6.2-10.73q.193-.282.394-.559c.081-.111.414-.533.157-.215.329-.408.671-.805,1.035-1.183a14.482,14.482,0,0,1,1.074-1c.217-.183.045-.048,0-.011.134-.1.276-.2.416-.3q.366-.252.75-.477t.776-.42c.091-.045.649-.294.317-.158a12.691,12.691,0,0,1,1.665-.544q.365-.094.734-.168c.125-.025.8-.134.662-.117.188-.024,1.095-.083,1.567-.087q.836-.008,1.67.066c.1.009.731.081.365.031.345.047.688.11,1.029.179a20.787,20.787,0,0,1,3.408,1.014c.267.1.07.023.015,0,.122.051.243.107.364.162q.423.193.837.4.768.392,1.5.846a13.664,13.664,0,0,1,2.528,1.909c3.753,3.467,6.209,8.182,7.954,12.885,1.728,4.658,2.78,9.535,4.562,14.172,1.711,4.454,4.008,8.769,7.935,11.647,4.465,3.272,10.316,3.191,15.135.757,5.231-2.642,8.478-7.778,10.438-13.121,2.138-5.825,2.871-12.076,3.686-18.191.752-5.645,1.561-11.325,3.483-16.712a28.03,28.03,0,0,1,7.737-11.947c3.695-3.185,9.189-4.729,12.917-8.316,4.169-4.01,5.073-9.769,6.3-15.143,1.129-4.931,2.743-9.941,6.119-13.6a13.373,13.373,0,0,1,5.422-3.645,15.3,15.3,0,0,1,1.673-.47c.26-.057.521-.105.783-.149-.346.058.51-.052.644-.061a12.8,12.8,0,0,1,1.7,0c.133.009.694.07.567.051-.245-.037.171.036.176.037.209.047.419.086.627.138a8.166,8.166,0,0,1,4.662,3.212,25.484,25.484,0,0,1,2.951,6.253,40.023,40.023,0,0,0,3.011,7.208,17.154,17.154,0,0,0,5.487,5.822,9.77,9.77,0,0,0,7.681,1.24,2.5,2.5,0,1,0-1.332-4.827,6.023,6.023,0,0,1-.777.17c.371-.045-.363-.013-.483-.016s-.251-.011-.377-.019c.051,0,.341.059.045.006a7.132,7.132,0,0,1-.973-.248c-.12-.039-.24-.081-.358-.127.054.021.273.124.012,0s-.539-.274-.8-.431a6.348,6.348,0,0,1-1.205-.895,12.18,12.18,0,0,1-2.143-2.481q-.507-.765-.935-1.579c-.152-.288-.292-.58-.432-.873a4.233,4.233,0,0,1-.225-.532c-1.839-4.652-3.01-9.911-6.749-13.5-3.869-3.716-9.587-4.455-14.56-2.753a20.646,20.646,0,0,0-11.549,10.613,40.976,40.976,0,0,0-2.92,7.82c-.691,2.568-1.138,5.192-1.8,7.767a26.859,26.859,0,0,1-1.129,3.529,13,13,0,0,1-1.781,3.017,18.884,18.884,0,0,1-5.889,4.256,46.98,46.98,0,0,0-6.671,3.994,27.556,27.556,0,0,0-5.564,5.842,41.136,41.136,0,0,0-6.167,14.255c-1.458,5.97-1.967,12.117-2.908,18.178-.871,5.614-1.995,11.492-5,16.321a15.093,15.093,0,0,1-5.036,5.1,10.293,10.293,0,0,1-6.715,1.57c-.3-.037-.1-.019-.044-.009-.142-.024-.283-.054-.424-.084q-.428-.092-.848-.218c-.229-.069-.453-.153-.681-.228-.018-.006-.381-.149-.14-.049s-.355-.17-.342-.164a11.694,11.694,0,0,1-1.208-.69c-.129-.084-.254-.175-.382-.26-.016-.011-.324-.236-.118-.081.118.089-.353-.294-.464-.392a14.6,14.6,0,0,1-1.085-1.066q-.281-.306-.546-.624c-.076-.092-.151-.185-.225-.278-.252-.317.191.266-.046-.066a25.424,25.424,0,0,1-1.758-2.817q-.387-.725-.733-1.47-.162-.347-.316-.7c-.052-.117-.1-.234-.154-.352.131.307-.049-.124-.092-.231-.418-1.034-.8-2.084-1.147-3.142-.773-2.327-1.4-4.7-2.117-7.041-1.589-5.165-3.522-10.378-6.617-14.849a25.333,25.333,0,0,0-12.158-9.748,19,19,0,0,0-14.556.368c-4.13,1.952-6.72,5.864-8.809,9.758-.964,1.8-1.864,3.632-2.921,5.377-.25.412-.508.819-.779,1.218-.123.181-.25.359-.377.538-.04.057-.315.423-.129.181.17-.223-.107.131-.138.168-.294.354-.6.7-.921,1.025q-.222.223-.454.435c-.119.108-.7.584-.3.275a9.837,9.837,0,0,1-1.047.692c-.215.123-.438.229-.657.344-.251.131.071-.02.107-.035-.134.056-.271.107-.408.156a11.729,11.729,0,0,1-3.761.581c-3.06.1-6.123.125-8.855,1.7-4.632,2.669-6.4,8.026-10.022,11.464a8.874,8.874,0,0,1-2.683,1.85c-.274.119-.1.032-.043.013-.171.063-.346.119-.522.169a5.229,5.229,0,0,1-.8.176c.307-.036-.448-.013-.554-.017a3.487,3.487,0,0,1-.412-.029c.135.021.31.048-.165-.061a2.56,2.56,0,0,0-3.081,1.748,2.531,2.531,0,0,0,1.75,3.079Z" fill="url(#linear-gradient)"/>
    <ellipse id="Ellipse_3" data-name="Ellipse 3" cx="10.52" cy="10.55" rx="10.52" ry="10.55" transform="translate(1128.15 364.03)" fill="#ff414b"/>
  </g>
</svg>
